<?xml version="1.0" encoding="UTF-8"?>
<svg width="1200pt" height="1200pt" version="1.1" viewBox="0 0 1200 1200" xmlns="http://www.w3.org/2000/svg">
 <path d="m863.33 368.85h-65.574l-28.695 75.898h-2.3516c-26.414-70.168-74.758-95.41-128.77-95.41-164.43 0-280.59 175.9-280.59 335.75 0 105.8 60.98 169.06 151.83 169.06 64.371 0 108.08-26.484 162.09-78.211h2.3164c-1.1445 54.074 33.316 78.211 78.176 78.211 124.21 0 272.55-147.17 272.55-325.45 0-204.66-178.21-353.01-401.32-353.01-246.1 0-447.3 189.75-447.3 424.31 0 233.46 193.2 424.31 447.31 424.31 157.53 0 305.87-80.492 385.19-209.26h-68.953c-60.984 97.723-193.2 158.64-316.23 158.64-218.47 0-389.85-166.72-389.85-373.69 0-198.93 164.43-373.69 389.85-373.69 178.21 0 343.79 118.41 343.79 298.93 0 119.58-103.45 278.29-204.7 278.29-20.684 0-31.012-9.1836-31.012-28.73 1.6914-23.207 6.7266-46.051 14.953-67.816zm-345 427.76c-68.957 0-98.891-47.168-98.891-117.3 0-110.36 88.566-272.52 212.77-272.52 68.957 0 98.859 35.672 98.859 110.43 0 105.77-89.672 279.39-212.74 279.39z"/>
</svg>
