<?xml version="1.0" encoding="UTF-8" standalone="no"?>
<svg
   width="1200pt"
   height="1200pt"
   version="1.1"
   viewBox="0 0 1200 1200"
   id="svg4"
   sodipodi:docname="github1.svg"
   inkscape:version="1.1.2 (0a00cf5339, 2022-02-04)"
   xmlns:inkscape="http://www.inkscape.org/namespaces/inkscape"
   xmlns:sodipodi="http://sodipodi.sourceforge.net/DTD/sodipodi-0.dtd"
   xmlns="http://www.w3.org/2000/svg"
   xmlns:svg="http://www.w3.org/2000/svg">
  <defs
     id="defs8" />
  <sodipodi:namedview
     id="namedview6"
     pagecolor="#ffffff"
     bordercolor="#666666"
     borderopacity="1.0"
     inkscape:pageshadow="2"
     inkscape:pageopacity="0.0"
     inkscape:pagecheckerboard="0"
     inkscape:document-units="pt"
     showgrid="false"
     inkscape:zoom="0.29375"
     inkscape:cx="798.29787"
     inkscape:cy="801.70213"
     inkscape:window-width="1368"
     inkscape:window-height="634"
     inkscape:window-x="0"
     inkscape:window-y="0"
     inkscape:window-maximized="1"
     inkscape:current-layer="svg4" />
  <path
     d="m 1034.7357,476.72263 c -0.2218,-58.8304 -20.5187,-115.82021 -57.52424,-161.54935 12.56578,-52.27978 8.64475,-107.16846 -11.22193,-157.13163 -3.91468,-9.61683 -11.93293,-16.9695 -21.8499,-20.04271 -14.02724,-4.80842 -67.14146,-13.83149 -175.37383,56.31838 -46.54422,-12.28536 -94.56992,-18.08522 -142.70085,-17.23674 -48.20109,-0.8547 -96.29193,4.94537 -142.90796,17.23674 C 372.1203,122.5627 314.39726,134.18915 302.77248,137.59474 v 0.006 c -9.96926,3.21002 -17.98166,10.7065 -21.84323,20.44025 -19.91245,49.79948 -23.97611,104.53951 -11.62629,156.73409 -38.21312,45.50032 -58.58822,103.33862 -57.32218,162.7486 0,221.67251 126.8721,288.61521 243.11824,312.26563 -5.96974,14.59494 -10.08016,29.88203 -12.22657,45.50032 -0.20879,1.66369 -0.20879,3.34696 0,5.01068 v 61.32906 C 337.04853,910.45018 314.39525,848.51448 312.19723,841.5012 h -0.006 c -0.5089,-1.63107 -1.11566,-3.24258 -1.80067,-4.80841 -20.44024,-41.70391 -56.42194,-73.72549 -100.21362,-89.18678 -11.88734,-3.97982 -24.99495,-1.30487 -34.37661,7.00059 -9.382,8.30553 -13.62271,20.98807 -11.12404,33.26757 2.49882,12.28536 11.36539,22.2942 23.25289,26.27267 24.26339,8.76218 44.5032,26.07726 56.91799,48.70382 14.02724,45.49365 71.35044,117.45036 197.62126,109.43327 v 57.72137 c 0,12.5333 6.68743,24.1081 17.53738,30.3781 10.85649,6.2634 24.22497,6.2634 35.07477,0 10.85648,-6.2698 17.53738,-17.8447 17.53738,-30.3781 V 842.90721 c 2.66201,-20.42186 11.54812,-39.52425 25.4576,-54.71329 6.52425,-6.11336 10.45846,-14.50359 10.98041,-23.42828 0.52194,-8.93187 -2.40747,-17.71944 -8.18144,-24.55067 C 535.1003,733.3906 526.9187,729.03882 518.03226,728.06675 395.77304,713.83725 282.73041,673.54887 282.73041,476.12972 h -0.006 c -1.63761,-48.18271 16.96951,-94.85053 51.31438,-128.6793 4.56706,-4.91281 7.72481,-10.9739 9.13414,-17.53738 1.40926,-6.55699 1.02432,-13.38136 -1.11566,-19.74209 -11.809,-34.30479 -12.57881,-71.45398 -2.2052,-106.22309 43.03507,9.71471 83.44621,28.65442 118.44915,55.51501 9.11443,6.02851 20.47365,7.58132 30.8658,4.20813 44.53492,-13.55105 90.95554,-19.84731 137.49308,-18.63973 46.46572,-1.207 92.82787,5.08249 137.29099,18.63973 10.39332,3.40575 21.76472,1.85294 30.86579,-4.20813 33.71187,-25.83007 72.30246,-44.57503 113.44516,-55.1175 10.21711,35.15995 9.30366,72.61646 -2.60973,107.23359 -1.96386,5.77397 -2.36187,11.96566 -1.16786,17.94825 1.19402,5.98259 3.94725,11.5416 7.9857,16.12154 33.17571,35.42718 51.97245,81.94467 52.71069,130.47979 0,197.01997 -118.85336,237.90714 -235.30159,251.93705 -9.34943,1.03735 -17.88311,5.81322 -23.66376,13.23787 -5.78049,7.42466 -8.31857,16.86595 -7.03316,26.18916 1.29182,9.3167 6.28288,17.71944 13.8577,23.30468 12.42882,9.42108 26.85391,35.87648 26.85391,80.17089 v 158.73671 h 0.006 c 0,12.5332 6.6809,24.1147 17.53739,30.3781 10.84995,6.2633 24.21828,6.2633 35.07475,0 10.84997,-6.2634 17.53738,-17.8447 17.53738,-30.3781 V 870.96819 c 0.36537,-27.91116 -4.74311,-55.6269 -15.03204,-81.57388 94.19746,-20.04272 239.71098,-81.9714 239.71098,-312.66649 z"
     id="path2"
     style="stroke-width:1.67023" />
</svg>
