<?xml version="1.0" encoding="UTF-8" standalone="no"?>
<svg
   viewBox="0 0 3333 3102"
   shape-rendering="geometricPrecision"
   text-rendering="geometricPrecision"
   image-rendering="optimizeQuality"
   fill-rule="evenodd"
   clip-rule="evenodd"
   version="1.1"
   id="svg4"
   sodipodi:docname="linkedin1.svg"
   inkscape:version="1.1.2 (0a00cf5339, 2022-02-04)"
   xmlns:inkscape="http://www.inkscape.org/namespaces/inkscape"
   xmlns:sodipodi="http://sodipodi.sourceforge.net/DTD/sodipodi-0.dtd"
   xmlns="http://www.w3.org/2000/svg"
   xmlns:svg="http://www.w3.org/2000/svg">
  <defs
     id="defs8" />
  <sodipodi:namedview
     id="namedview6"
     pagecolor="#ffffff"
     bordercolor="#666666"
     borderopacity="1.0"
     inkscape:pageshadow="2"
     inkscape:pageopacity="0.0"
     inkscape:pagecheckerboard="0"
     showgrid="false"
     inkscape:zoom="0.15151515"
     inkscape:cx="1376.1"
     inkscape:cy="1686.3"
     inkscape:window-width="1368"
     inkscape:window-height="634"
     inkscape:window-x="0"
     inkscape:window-y="0"
     inkscape:window-maximized="1"
     inkscape:current-layer="svg4" />
  <path
     d="m 1324.2036,1089.8589 h 465.2237 c 18.8998,0 34.1649,15.2651 34.1649,34.1648 v 142.4747 c 37.7992,-41.434 85.7756,-79.2333 144.6555,-109.7636 77.7795,-40.7071 174.4588,-66.8759 287.1301,-66.8759 258.7808,0 413.613,82.141 503.75,217.3466 88.6832,133.0249 112.6714,314.7528 112.6714,519.7421 v 809.7799 c 0,18.8998 -15.2651,34.1648 -34.1649,34.1648 h -484.8502 c -18.8997,0 -34.1649,-15.265 -34.1649,-34.1648 v -718.189 c 0,-82.1412 -0.7269,-176.6397 -30.5302,-247.15 -26.8958,-63.9683 -80.6873,-110.4908 -187.5433,-110.4908 -111.9444,0 -175.1859,39.9803 -210.8046,100.314 -37.7995,63.9682 -46.5224,153.3783 -46.5224,244.2424 v 730.5465 c 0,18.8996 -15.2651,34.165 -34.1648,34.165 h -484.8503 c -18.8997,0 -34.1648,-15.2654 -34.1648,-34.165 V 1122.5698 c 0,-18.8996 15.2651,-34.1648 34.1648,-34.1648 z m 431.0589,68.3296 h -396.8941 v 1445.1011 h 415.7937 v -696.3818 c 0,-101.7677 10.9037,-202.0814 55.9721,-279.1341 47.2494,-80.6872 129.3904,-134.4788 269.6844,-134.4788 141.7481,0 213.7122,63.9683 250.7848,152.6517 34.8916,82.8678 35.6187,184.6355 35.6187,273.3188 v 684.0242 h 416.5205 v -775.615 c 0,-192.6318 -21.8074,-362.7292 -101.0407,-481.9427 -77.7796,-117.0329 -214.4392,-187.5434 -447.051,-187.5434 -101.0407,0 -186.8164,23.2613 -255.8729,59.6069 -82.868,42.8878 -141.021,103.2214 -173.732,161.3744 -5.8153,10.1767 -16.7189,17.4459 -29.8034,17.4459 h -6.5423 c -18.8996,0 -34.1647,-15.2652 -34.1647,-34.1648 V 1158.1885 Z M 1022.5352,703.14166 c 0,79.23342 -31.9842,150.47079 -84.32186,202.80841 -51.61073,51.61077 -123.575,84.32181 -202.80841,84.32181 -79.23341,0 -150.47079,-31.98408 -202.80844,-84.32181 -51.61074,-51.61072 -84.32179,-123.57499 -84.32179,-202.80841 0,-79.2334 31.98412,-150.47078 84.32179,-202.80844 51.61074,-51.61073 123.57503,-84.32178 202.80844,-84.32178 79.23341,0 150.47079,31.98412 202.80841,84.32178 51.61079,51.61075 84.32186,123.57504 84.32186,202.80844 z M 890.23717,857.247 c 39.25323,-39.25324 63.96826,-93.77165 63.96826,-154.10534 0,-60.33369 -24.71503,-114.85209 -63.96826,-154.10534 -39.25323,-39.25324 -93.77163,-63.96825 -154.10533,-63.96825 -60.3337,0 -114.85209,24.71501 -154.10534,63.96825 -39.25325,39.25325 -63.96824,93.77165 -63.96824,154.10534 0,60.33369 24.71499,114.8521 63.96824,154.10534 39.25325,39.25323 93.77164,63.96828 154.10534,63.96828 60.3337,0 114.8521,-24.71505 154.10533,-63.96828 z M 483.89338,1089.132 H 988.3703 c 18.8998,0 34.1649,15.2651 34.1649,34.1647 v 1513.4308 c 0,18.8998 -15.2651,34.1648 -34.1649,34.1648 H 483.89338 c -18.89969,0 -34.16486,-15.265 -34.16486,-34.1648 V 1123.2967 c 0,-18.8996 15.26517,-34.1647 34.16486,-34.1647 z m 470.31205,68.3295 H 518.05826 v 1445.1011 h 436.14717 z"
     fill-rule="nonzero"
     id="path2"
     style="stroke-width:0.726913" />
</svg>
