<?xml version="1.0" encoding="UTF-8"?>
<svg width="1200pt" height="1200pt" version="1.1" viewBox="0 0 1200 1200" xmlns="http://www.w3.org/2000/svg">
 <path d="m947.96 662.81c106.51-163.18 84.109-378.67-53.676-516.47-0.99609-0.99609-1.9922-1.9922-2.9883-2.9883-160.88-160.87-421.71-160.87-582.6 0-0.99609 0.99609-1.9922 1.9922-2.9883 2.9883-137.79 137.8-160.19 353.29-53.676 516.47 144.62 221.57 327.86 502.31 327.86 502.31 4.4297 6.793 11.988 10.883 20.102 10.883s15.672-4.0938 20.102-10.883c0 0 183.24-280.74 327.86-502.31zm-40.199-26.23-307.77 471.52s-307.77-471.52-307.77-471.52c-94.105-144.17-74.316-334.56 47.426-456.29 0.99609-0.99609 1.9922-1.9922 2.9883-2.9883 142.13-142.14 372.57-142.14 514.7 0 0.99609 0.99609 1.9922 1.9922 2.9883 2.9883 121.74 121.73 141.53 312.12 47.426 456.29zm-307.77-397.84c-105.97 0-192 86.027-192 192 0 105.96 86.027 192 192 192s192-86.039 192-192c0-105.97-86.027-192-192-192zm0 48c79.477 0 144 64.523 144 144 0 79.477-64.523 144-144 144s-144-64.523-144-144c0-79.477 64.523-144 144-144z" fill-rule="evenodd"/>
</svg>
