<?xml version="1.0" encoding="UTF-8"?>
<svg width="700pt" height="700pt" version="1.1" viewBox="0 0 700 700" xmlns="http://www.w3.org/2000/svg">
 <g>
  <path d="m429.54 41.371h-159.09c-36.539 0-66.289 29.75-66.289 66.289v344.7c0 36.539 29.75 66.289 66.289 66.289h159.09c36.539 0 66.289-29.75 66.289-66.289v-344.7c0-36.562-29.75-66.289-66.289-66.289zm39.785 410.97c0 21.934-17.852 39.785-39.785 39.785h-159.09c-21.934 0-39.785-17.852-39.785-39.785v-344.68c0-21.934 17.852-39.785 39.785-39.785h159.09c21.934 0 39.785 17.852 39.785 39.785z"/>
  <path d="m376.51 452.34c0 14.641-11.867 26.508-26.508 26.508s-26.508-11.867-26.508-26.508 11.867-26.508 26.508-26.508 26.508 11.867 26.508 26.508"/>
  <path d="m376.51 81.129h-53.035c-7.3281 0-13.254 5.9258-13.254 13.254 0 7.3281 5.9258 13.254 13.254 13.254h53.035c7.3281 0 13.254-5.9258 13.254-13.254 0-7.3242-5.9297-13.254-13.254-13.254z"/>
 </g>
</svg>
