<?xml version="1.0" encoding="UTF-8"?>
<svg width="1200pt" height="1200pt" version="1.1" viewBox="0 0 1200 1200" xmlns="http://www.w3.org/2000/svg">
 <g>
  <path d="m770.45 88.648h-340.9c-78.301 0-142.05 63.75-142.05 142.05v738.65c0 78.301 63.75 142.05 142.05 142.05h340.9c78.301 0 142.05-63.75 142.05-142.05v-738.65c0-78.348-63.75-142.05-142.05-142.05zm85.25 880.65c0 47-38.25 85.25-85.25 85.25h-340.9c-47 0-85.25-38.25-85.25-85.25v-738.6c0-47 38.25-85.25 85.25-85.25h340.9c47 0 85.25 38.25 85.25 85.25z"/>
  <path d="m656.8 969.3c0 31.367-25.43 56.801-56.801 56.801s-56.801-25.434-56.801-56.801c0-31.371 25.43-56.801 56.801-56.801s56.801 25.43 56.801 56.801"/>
  <path d="m656.8 173.85h-113.65c-15.699 0-28.398 12.699-28.398 28.398s12.699 28.398 28.398 28.398h113.65c15.699 0 28.398-12.699 28.398-28.398s-12.699-28.398-28.398-28.398z"/>
 </g>
</svg>
